<svg xmlns="http://www.w3.org/2000/svg" viewBox="0 0 396 104"><defs><style>.a{fill:#fff;}</style></defs><title>Asset 1</title><path class="a" d="M30.6,39.36a8.5,8.5,0,0,0,8.19-8.15,5.16,5.16,0,0,0-5.37-5.28,8.49,8.49,0,0,0-8.1,8.15A5,5,0,0,0,30.6,39.36Z"/><path class="a" d="M191.58,55.29c0-.74-1.55-1-3.19-1-1.09,0-3.18.28-4,1.11-1.18,1.3-3.55,4.26-5.1,5.92-4.19,4.45-16.57,16.21-23.86,16.21-.91,0-1.36-.56-1.36-1.48,0-6.48,19.58-31.86,35.6-31.86,4.28,0,4,4.82,4.19,4.82,1.37,0,3.92-2.69,3.92-4.82,0-1.39-1.09-2.59-4.28-2.59-20.13,0-40.71,20.11-46.65,33.12-3.79,3.19-8.67,5.87-13.63,5.87s-7.29-2.69-7.29-6.11c0-4,3.19-9.17,8.83-12A9.87,9.87,0,0,0,142,65.29c4.73,0,8-3.06,8-5.28,0-1.3-1.19-2.41-3.83-2.41a33.61,33.61,0,0,0-9.75,1.67,7.41,7.41,0,0,1-.73-3.52,11,11,0,0,1,11-10.93c2.37,0,6.92,1.48,7,5.09,2.82-1.85,4.1-3.52,4.1-4.91,0-1.94-2.46-3.15-6.47-3.15-13.93,0-19.48,6.95-19.48,13.24a10.7,10.7,0,0,0,1.37,5.37c-8.24,3.37-15.42,9.52-15.65,16-3.57,3.6-6.15,5.41-7.75,5.41-1.28,0-2-1.21-2-3.61,0-7.32,13.2-24.08,18.94-31.4.09-.19.18-.28.18-.46,0-.74-1-1-2.64-1-2.55,0-2.91,0-5.1,2.13C114.77,52,105.6,64.25,101.62,73.28c-5.15,5.71-8.73,8.59-10.75,8.59-1.28,0-2-1.21-2-3.61,0-6.2,8.11-22.41,18.67-38.25A69,69,0,0,0,125,33.95s0,.09,0,.13a5,5,0,0,0,5.28,5.28,8.5,8.5,0,0,0,8.2-8.15,5.18,5.18,0,0,0-2.11-4.27c10.28-7.71,16.68-16.73,16.68-22.12,0-2.87-1.82-4.72-5.92-4.72-11.65,0-29.5,17.69-43.62,36.77a9.67,9.67,0,0,1-1.64.09c-1.46,0-3-.09-3.91-.19A1.09,1.09,0,0,0,96.88,38c0,2.22,2.37,3,3.73,3A164.4,164.4,0,0,0,85.5,66.59c-4.83,4.54-11.11,9.36-16,9.36-2.19,0-3.1-1.3-3.1-3.34,0-7.22,11.84-23.89,19.94-23.89a5.58,5.58,0,0,1,5.28,3.7c.45,0,2.55-2.22,2.55-4.07,0-1.2-1-2.22-4-2.22-15,0-30.26,17.35-32.35,28.27-4.6,5-7.84,7.47-9.72,7.47-1.27,0-2-1.21-2-3.61,0-7.59,13-27.6,20-32.6a1.84,1.84,0,0,0,.45-1.2c0-.37-.18-.65-.73-.65-7.56,0-28.32,19.72-34.69,26.3,6.74-11.3,15.11-22.32,15.11-22.32.09-.18.18-.28.18-.46,0-.83-1.55-1-3-1-2.09,0-2.82-.09-4.1,1.58L20.66,73.49c-5,5.57-8.56,8.37-10.55,8.37-1.28,0-2-1.21-2-3.61,0-7.32,13.2-24.08,18.94-31.4.09-.19.18-.28.18-.46,0-.74-1-1-2.64-1-2.55,0-2.91,0-5.1,2.13C13.75,53.34,0,72.24,0,80.2c0,3.52,1.82,5.46,4.74,5.46,2.71,0,6.45-1.64,10.79-5.14l-.23.32c0,2.13,1.18,3.34,3,3.34,2.82,0,5.83-3.89,7.56-5.65C30.23,74.09,52.35,52,54.72,52c.18,0,.36,0,.36.28-7,7.5-17,21.3-17,28.34,0,3.7,2.64,4.63,5.55,4.63,3.35,0,8.21-2.6,13.93-8.31,0,3.73,2.15,6.28,7.1,6.28,6.28,0,15.11-7.78,18.76-11.3a23.89,23.89,0,0,0-1.64,7.59c0,3.7,1.73,5.74,4.64,5.74,3.33,0,8.15-2.57,13.83-8.21a12,12,0,0,0-.54,3.21c0,3.52,1.82,5.46,4.73,5.46,3.21,0,7.87-2.3,13.25-7.26.67,4,4,6.79,11,6.79,5.22,0,11.64-2.7,16.9-7a11.27,11.27,0,0,0-.41,2.84c0,2.78,1.45,4.44,4.83,4.44,7.19,0,18.39-10.28,20.67-12.6.36-.37.55-.46.73-.46a.44.44,0,0,1,.46.46c.09.93-20.76,28.71-33.51,29.45-1.28.09-1.82.28-1.82.56,0,.46,1.91,1.11,3.91,1.11,22.67,0,45-40.19,51-48.25C191.49,55.57,191.58,55.47,191.58,55.29ZM144.69,60c2.09,0,3,.56,3,1.2,0,.83-1.82,1.85-4.64,1.85a7.49,7.49,0,0,1-5.37-1.94A23.63,23.63,0,0,1,144.69,60Zm1-56.86a2.38,2.38,0,0,1,2.64,2.69c0,4.33-5.52,13-15.06,20.1h-.15a8.5,8.5,0,0,0-7.23,4.68,54.52,54.52,0,0,1-15.72,5.51C122.2,18.8,136.59,3.15,145.69,3.15Z"/><path class="a" d="M361.13,34.08a5,5,0,0,0,5.28,5.28,8.5,8.5,0,0,0,8.19-8.15,5.16,5.16,0,0,0-5.37-5.28A8.49,8.49,0,0,0,361.13,34.08Z"/><path class="a" d="M384.34,55.93c-6.19,0-6.28-2.59-6.28-2.59-2.28,1-3.74,2.69-3.74,4,0,1.11,1.1,2,3.74,2,10.56,0,17.94-7.59,17.94-12.69,0-2.59-1.82-4.44-6.1-4.44-15.54,0-35.5,21.45-36,34-3.67,3.73-6.32,5.61-7.95,5.61-1.27,0-2-1.21-2-3.61,0-7.32,13.21-24.08,18.94-31.4.09-.18.18-.28.18-.46,0-.74-1-1-2.64-1-2.55,0-2.91,0-5.1,2.13-4.39,4.46-13.45,16.55-17.48,25.56-5.25,5.84-8.88,8.79-10.93,8.79-1.27,0-2-1.21-2-3.61,0-5.65,10.47-18.71,15.84-25.47,1.82-2.31,2.55-3.89,2.55-4.82,0-1.3-1.37-1.57-3.19-1.57-4.28,0-12.75,3.61-22.4,10.65-.36,0-.45-.09-.45-.28a1.78,1.78,0,0,1,.36-.74c2.83-3.61,6.47-8.61,10.38-14.08,25-8.15,44.71-30.47,44.71-38.8,0-1.94-1.1-3.15-3.55-3.15-13.75,0-29,18.61-45.53,40a50.38,50.38,0,0,1-8.38.83c-1.46,0-3-.09-3.92-.19a1.09,1.09,0,0,0-1.09,1.21c0,2.22,2.46,3.06,3.82,3a37.5,37.5,0,0,0,6.47-.93c-6.83,8.88-13.94,19.19-21.22,27.53-7.18,7.3-14.87,11.08-20.85,11.08H278c14.39-8.44,25.77-22.83,25.77-30.42,0-2.32-1.1-4.38-3.46-4.38-8.83,0-22.95,13.6-28.78,19.53L285.91,47.1a1.23,1.23,0,0,0,.18-.54c0-.83-1.55-1.05-3-1.05-1.91,0-3,0-4.1,1.56,0,0-9.51,13.46-19.65,27.49-4.53,4.86-7.71,7.31-9.58,7.31-1.27,0-2-1.21-2-3.61,0-8.43,9.11-18.52,13.84-23.62,1.82-2,3.64-3.8,4.28-4.63.09-.18.18-.28.18-.46,0-.74-1.55-1-3.18-1a12.58,12.58,0,0,0-2.1.19c-2.18.19-9.29,8.8-12.38,12.23-4.19,4.44-14.29,15-21.58,15-1,0-1.46-.65-1.46-1.67,0-3,3.83-9.65,9.51-16,6.67-7.43,15.89-14.4,24.45-14.4,4.28,0,4.19,3.24,4.37,3.24.46,0,3.1-2.32,3.1-4.07,0-1-.82-1.76-3.64-1.76-21.88,0-43.45,23.2-46.44,35.35-3.46,3.46-6,5.21-7.55,5.21-1.28,0-2-1.21-2-3.61,0-5.74,10.2-19.26,19.85-28.34a1.49,1.49,0,0,0,.27-.74c0-.93-1.55-1.11-1.55-1.11a69.94,69.94,0,0,1-10.93.83,20.12,20.12,0,0,1-6.37-.83c2.46-4.26,4-7.87,4-10.09a2.19,2.19,0,0,0-2.46-2.5c-5.37,0-10.2,3.8-10.2,8.15,0,2.41,1.45,5,5,7.22a119.44,119.44,0,0,1-11.47,16.39l-1.64,1.95a2.18,2.18,0,0,0-.64,1.2c0,.65.91.84.91.84a217.15,217.15,0,0,0,14.29-19.54A36.81,36.81,0,0,0,216.44,55c-5.92,5.56-17.85,18.89-17.85,25.83,0,2.59,1.73,4.35,6.1,4.35,2.89,0,6.92-1.95,11.66-6.17,0,.08,0,.16,0,.24,0,2.87,1.55,4.63,5,4.63,7.19,0,18.3-10.93,20.58-13.24.37-.37.55-.46.73-.46a.43.43,0,0,1,.46.46,19.33,19.33,0,0,0-2.46,8.8c0,3.7,1.73,5.74,4.64,5.74,2.43,0,5.66-1.37,9.44-4.32-6,8.27-11.79,16-15.45,20.62a1.11,1.11,0,0,0-.37.74c0,.93,1.73,1.39,3.73,1.39,2.64,0,5.83-.74,6.74-2.22,0,0,12.75-20.84,16.3-25.28C267.79,73.62,286.82,52,295.2,52c1.37,0,1.91.93,1.91,2.31,0,6.39-12.11,23.89-23.67,23.89-3.1,0-4.28-1.3-4.83-2l-.36-.56c-.46,0-2.37,2.13-2.37,3.8,0,2.69,3.92,4.08,8.47,4.08A36.11,36.11,0,0,0,292,78.22c-.43.45-.86.9-1.29,1.33,0,2.13,1.18,3.34,3,3.34a4.94,4.94,0,0,0,3.1-.93c6.19-5,16.48-18.8,23.13-23.8,7.1-5.37,13.11-8.33,15.66-8.33.46,0,.64.18.64.56,0,3.33-19.57,22-19.57,30.47,0,3.43,1.64,5.28,4.46,5.28,3.55,0,9-3,15.23-9.25a12.25,12.25,0,0,0-.57,3.33c0,3.52,1.82,5.46,4.74,5.46,3.24,0,8-2.34,13.41-7.41.61,4.12,3.9,6.94,11,6.94,6.28,0,14.3-3.89,19.94-9.82a85.42,85.42,0,0,0,5.55-6.58,1,1,0,0,0,.18-.65c0-.65-.73-.93-.73-.93-2.1,2.5-3.83,4.72-5.65,6.49-3.92,3.61-9.29,6.85-14.75,6.85-5.28,0-7.38-2.87-7.38-7.13,0-10.47,13.2-28.62,26-28.62,2.1,0,3,1.39,3,3.24C391.08,51.31,388.17,55.93,384.34,55.93ZM366.68,3.06a1.83,1.83,0,0,1,2.09,2c0,6.3-16.21,25.47-37.79,32.88C342.92,21.67,357.57,3.06,366.68,3.06ZM202.87,42.32a3.92,3.92,0,0,1,3.82-4.07c1.27,0,2.36.28,2.36,1.94s-.91,4.17-2.46,7.22C204,46,202.87,44.08,202.87,42.32Z"/></svg>